<svg id="visual" viewBox="0 0 900 600" width="900" height="600" xmlns="http://www.w3.org/2000/svg" xmlns:xlink="http://www.w3.org/1999/xlink" version="1.1"><path d="M0 97L82 109L164 97L245 127L327 97L409 49L491 43L573 103L655 79L736 67L818 97L900 91L900 0L818 0L736 0L655 0L573 0L491 0L409 0L327 0L245 0L164 0L82 0L0 0Z" fill="#f25757"></path><path d="M0 229L82 211L164 235L245 235L327 277L409 205L491 223L573 259L655 175L736 235L818 361L900 265L900 89L818 95L736 65L655 77L573 101L491 41L409 47L327 95L245 125L164 95L82 107L0 95Z" fill="#f86846"></path><path d="M0 391L82 415L164 451L245 433L327 451L409 421L491 451L573 475L655 439L736 367L818 451L900 433L900 263L818 359L736 233L655 173L573 257L491 221L409 203L327 275L245 233L164 233L82 209L0 227Z" fill="#f97b34"></path><path d="M0 541L82 499L164 511L245 535L327 499L409 559L491 511L573 547L655 511L736 499L818 541L900 553L900 431L818 449L736 365L655 437L573 473L491 449L409 419L327 449L245 431L164 449L82 413L0 389Z" fill="#f58f1f"></path><path d="M0 601L82 601L164 601L245 601L327 601L409 601L491 601L573 601L655 601L736 601L818 601L900 601L900 551L818 539L736 497L655 509L573 545L491 509L409 557L327 497L245 533L164 509L82 497L0 539Z" fill="#eca400"></path></svg>